<svg xmlns="http://www.w3.org/2000/svg" width="27" height="26.731" viewBox="0 0 27 26.731">
  <g id="Chat" transform="translate(3 3)">
    <g id="Union_3" data-name="Union 3" transform="translate(21 20.732) rotate(180)" fill="none" stroke-linecap="round" stroke-linejoin="round">
      <path d="M4,20.732a4,4,0,0,1-4-4V10A4,4,0,0,1,4,6H9.141l6.494-6V6H17a4,4,0,0,1,4,4v6.736a4,4,0,0,1-4,4Z" stroke="none"/>
      <path d="M 17.00010108947754 20.73150062561035 C 19.2096004486084 20.73150062561035 20.99970054626465 18.9414005279541 20.99970054626465 16.73190116882324 L 20.99970054626465 9.99630069732666 C 20.99970054626465 7.787700653076172 19.2096004486084 5.996700286865234 17.00010108947754 5.996700286865234 L 15.63570022583008 5.996700286865234 L 15.63570022583008 0.0009004470775835216 L 9.141340255737305 5.996700286865234 L 3.999600172042847 5.996700286865234 C 1.791000247001648 5.996700286865234 2.731323149873788e-07 7.787700653076172 2.731323149873788e-07 9.99630069732666 L 2.731323149873788e-07 16.73190116882324 C 2.731323149873788e-07 18.9414005279541 1.791000247001648 20.73150062561035 3.999600172042847 20.73150062561035 L 17.00010108947754 20.73150062561035 M 17.00010108947754 23.73150062561035 L 3.999600172042847 23.73150062561035 C 0.140010267496109 23.73150062561035 -2.999999761581421 20.59148979187012 -2.999999761581421 16.73190116882324 L -2.999999761581421 9.99630069732666 C -2.999999761581421 6.136710643768311 0.140010267496109 2.996700525283813 3.999600172042847 2.996700525283813 L 7.968248844146729 2.996700525283813 L 13.60068035125732 -2.203339576721191 C 14.47623062133789 -3.011680364608765 15.74719333648682 -3.225178718566895 16.83880996704102 -2.747289657592773 C 17.930419921875 -2.269399642944336 18.63570022583008 -1.190739512443542 18.63570022583008 0.0009004470775835216 L 18.63570022583008 3.189640760421753 C 21.7089729309082 3.928106784820557 23.99970054626465 6.699724197387695 23.99970054626465 9.99630069732666 L 23.99970054626465 16.73190116882324 C 23.99970054626465 20.59148979187012 20.85968971252441 23.73150062561035 17.00010108947754 23.73150062561035 Z" stroke="none" fill="#645e55"/>
    </g>
  </g>
</svg>
