<svg xmlns="http://www.w3.org/2000/svg" xmlns:xlink="http://www.w3.org/1999/xlink" width="193.367" height="71.578" viewBox="0 0 193.367 71.578">
  <defs>
    <clipPath id="clip-path">
      <rect id="Rectangle_1" data-name="Rectangle 1" width="193.367" height="71.578" fill="none"/>
    </clipPath>
    <clipPath id="clip-path-2">
      <path id="Path_9" data-name="Path 9" d="M37.8,31.436l-2.191,2.844h7.859V31.436Z" transform="translate(-35.609 -31.436)" fill="none"/>
    </clipPath>
    <linearGradient id="linear-gradient" x1="-4.221" y1="6.082" x2="-4.104" y2="6.082" gradientUnits="objectBoundingBox">
      <stop offset="0" stop-color="#005c9f"/>
      <stop offset="0.587" stop-color="#005c9f"/>
      <stop offset="0.809" stop-color="#005c9f"/>
      <stop offset="1" stop-color="#005c9f"/>
    </linearGradient>
  </defs>
  <g id="Logo" transform="translate(0 0)">
    <g id="Group_2" data-name="Group 2" transform="translate(0 0)">
      <g id="Group_1" data-name="Group 1" clip-path="url(#clip-path)">
        <path id="Path_1" data-name="Path 1" d="M207.157,40.084a2.606,2.606,0,0,0-.366-1.365,5.332,5.332,0,0,0-.973-1.171,13.339,13.339,0,0,0-1.375-1.092c-.517-.357-1.039-.74-1.575-1.145a19.126,19.126,0,0,1-1.575-1.334,8.908,8.908,0,0,1-1.375-1.643,8.384,8.384,0,0,1-.974-2.1A7.568,7.568,0,0,1,198.672,29a1.267,1.267,0,0,1,.282-1.008,1.151,1.151,0,0,1,.913-.437h1.8a1.207,1.207,0,0,1,1.171.958,3.5,3.5,0,0,0,.193.581,5.363,5.363,0,0,0,.788,1.277,7.874,7.874,0,0,0,1.114,1.092c.416.341.837.667,1.269.987.612.451,1.223.924,1.841,1.423a11.8,11.8,0,0,1,1.671,1.643,8.276,8.276,0,0,1,1.214,1.979,5.89,5.89,0,0,1,.472,2.4v3.4a7.252,7.252,0,0,1-.191,1.658,7.732,7.732,0,0,1-.532,1.507,6.008,6.008,0,0,1-.808,1.276,6.306,6.306,0,0,1-2.012,1.569,5.394,5.394,0,0,1-1.1.41,9.3,9.3,0,0,1-1.49.231c-.577.047-1.3.068-2.162.068-.833,0-1.5-.02-2.017-.068a6.689,6.689,0,0,1-1.284-.226,3.4,3.4,0,0,1-.918-.41c-.266-.168-.567-.373-.9-.62a5.344,5.344,0,0,1-1.044-1.008,6.5,6.5,0,0,1-.8-1.313,7.824,7.824,0,0,1-.7-3.224V39.7a1.239,1.239,0,0,1,1.207-1.263h1.92a1.239,1.239,0,0,1,1.207,1.263v3.367a2.938,2.938,0,0,0,.205,1.133,2.487,2.487,0,0,0,.562.841,2.525,2.525,0,0,0,.838.541,3.732,3.732,0,0,0,1.044.236h.738a9.088,9.088,0,0,0,1.66-.132,3.217,3.217,0,0,0,1.219-.451,2.207,2.207,0,0,0,.762-.871,3.885,3.885,0,0,0,.346-1.376Zm-23.719,3.208a6.567,6.567,0,0,1-1.876,5.061,7.724,7.724,0,0,1-5.343,1.659,17.92,17.92,0,0,1-1.956-.084,7.758,7.758,0,0,1-1.3-.247,3.923,3.923,0,0,1-.938-.409c-.271-.163-.557-.352-.863-.567a5.37,5.37,0,0,1-1.029-.972,6.036,6.036,0,0,1-.807-1.276,7.732,7.732,0,0,1-.532-1.507,7.252,7.252,0,0,1-.191-1.658v-9.02a7.259,7.259,0,0,1,.191-1.659,7.751,7.751,0,0,1,.532-1.507,6.051,6.051,0,0,1,3.918-3.255,9.3,9.3,0,0,1,1.49-.231c.581-.047,1.3-.069,2.161-.069h7.224c.863,0,1.58.021,2.162.069a6.167,6.167,0,0,1,5.408,3.485,7.75,7.75,0,0,1,.532,1.507,7.26,7.26,0,0,1,.191,1.659V48.748a1.239,1.239,0,0,1-1.207,1.263h-1.829a1.239,1.239,0,0,1-1.208-1.263V34.493a2.945,2.945,0,0,0-.522-1.681,2.53,2.53,0,0,0-.577-.593,2.27,2.27,0,0,0-.7-.357,4.306,4.306,0,0,0-.823-.1c-.252-.011-.549-.016-.891-.019a1.14,1.14,0,0,0-.859.366,1.249,1.249,0,0,0-.357.9Zm-5.451-11.551H176.85c-.562,0-1.023,0-1.384.02a4.369,4.369,0,0,0-.828.1,2.057,2.057,0,0,0-.707.357,2.786,2.786,0,0,0-.567.588,2.962,2.962,0,0,0-.522,1.685v8.579a2.567,2.567,0,0,0,.205.982,2.737,2.737,0,0,0,.608.886,3.1,3.1,0,0,0,2.222.882,5.488,5.488,0,0,0,1.325-.152,2.9,2.9,0,0,0,1.048-.494,2.335,2.335,0,0,0,.693-.86,2.873,2.873,0,0,0,.25-1.245V33a1.239,1.239,0,0,0-1.207-1.263m-22.769,18.27c-.637,0-1.274-.011-1.911-.037a10.931,10.931,0,0,1-1.836-.226,7.575,7.575,0,0,1-1.645-.535,3.994,3.994,0,0,1-1.325-1,4.618,4.618,0,0,1-.893-1.606,6.809,6.809,0,0,1-.31-1.855,1.254,1.254,0,0,1,.333-.931,1.142,1.142,0,0,1,.873-.391h1.781a1.223,1.223,0,0,1,1.2,1.114,1.244,1.244,0,0,0,.208.592,1.31,1.31,0,0,0,.6.456,2.719,2.719,0,0,0,.848.195c.321.026.657.037,1.008.037h3.536c.442,0,.873-.016,1.295-.052a3.822,3.822,0,0,0,1.129-.263,1.912,1.912,0,0,0,.813-.609,1.747,1.747,0,0,0,.306-1.092V41.254a1.407,1.407,0,0,0-.11-.577.988.988,0,0,0-.381-.43,1.98,1.98,0,0,0-.712-.263,5.884,5.884,0,0,0-1.1-.084h-1.23a1.239,1.239,0,0,1-1.208-1.263V37.006a1.239,1.239,0,0,1,1.208-1.263h.909a4.493,4.493,0,0,0,1.349-.168,1.9,1.9,0,0,0,.8-.467,1.494,1.494,0,0,0,.382-.7,3.668,3.668,0,0,0,.095-.86,1.7,1.7,0,0,0-.176-.772,1.443,1.443,0,0,0-.572-.577,3.2,3.2,0,0,0-1.039-.363,8.785,8.785,0,0,0-1.564-.12h-1.7a1.239,1.239,0,0,0-1.208,1.263v1.865a8.542,8.542,0,0,1-.532,3.171,5.733,5.733,0,0,1-1.515,2.226,6.284,6.284,0,0,1-2.383,1.313,10.56,10.56,0,0,1-3.126.431,13.652,13.652,0,0,1-3.5-.4,6.159,6.159,0,0,1-2.5-1.276,5.323,5.323,0,0,1-1.5-2.253,9.74,9.74,0,0,1-.5-3.339,8.5,8.5,0,0,1,.551-3.2,5.58,5.58,0,0,1,1.611-2.236,6.8,6.8,0,0,1,2.583-1.308,13.323,13.323,0,0,1,3.5-.42h9.742a20.1,20.1,0,0,1,2.022.1,11.455,11.455,0,0,1,1.911.352A7.913,7.913,0,0,1,163,28.68a4.7,4.7,0,0,1,2.237,2.6,6.135,6.135,0,0,1,.321,2.089,8.074,8.074,0,0,1-.306,2.331,4.37,4.37,0,0,1-.4.935,1.291,1.291,0,0,0,.08,1.432,2.444,2.444,0,0,1,.33.626,4.522,4.522,0,0,1,.231,1.056,13.922,13.922,0,0,1,.065,1.481v2.588a7.473,7.473,0,0,1-.361,2.472A5.014,5.014,0,0,1,164.223,48a4.641,4.641,0,0,1-1.45,1.087A8.129,8.129,0,0,1,161,49.7a12.17,12.17,0,0,1-1.931.263c-.658.037-1.31.052-1.941.052Zm-5.707-18.27h-1.9a7.326,7.326,0,0,0-1.8.189,3.191,3.191,0,0,0-1.2.562,2.086,2.086,0,0,0-.673.9,3.447,3.447,0,0,0-.205,1.223,3.626,3.626,0,0,0,.2,1.239,2.989,2.989,0,0,0,.552.981,2.738,2.738,0,0,0,.837.662,2.861,2.861,0,0,0,1.064.289h1.545a2.929,2.929,0,0,0,1.415-.3,2.284,2.284,0,0,0,.848-.766,2.927,2.927,0,0,0,.411-1.024,5.472,5.472,0,0,0,.11-1.081V33a1.239,1.239,0,0,0-1.208-1.263m-17.4,2.309a6.025,6.025,0,0,0-.08-1.081,1.632,1.632,0,0,0-.3-.72,1.256,1.256,0,0,0-.613-.409,3.259,3.259,0,0,0-1.023-.132h-.869a1.239,1.239,0,0,0-1.208,1.263V35.4a1.239,1.239,0,0,1-1.207,1.263h-1.829a1.239,1.239,0,0,1-1.207-1.263V32.973a1.239,1.239,0,0,0-1.208-1.263H119.12a1.239,1.239,0,0,1-1.207-1.264V28.783a1.239,1.239,0,0,1,1.207-1.263H129.7a11.355,11.355,0,0,1,3.466.43,4.448,4.448,0,0,1,2.017,1.239,4.19,4.19,0,0,1,.938,1.969,13.443,13.443,0,0,1,.236,2.625v9.5a7.222,7.222,0,0,1-.191,1.659,7.821,7.821,0,0,1-.527,1.512,6.09,6.09,0,0,1-.813,1.276,6.315,6.315,0,0,1-2.012,1.569,5.239,5.239,0,0,1-1.093.41,9.3,9.3,0,0,1-1.49.231c-.582.047-1.3.068-2.162.068-.813,0-1.515-.02-2.107-.068a10.778,10.778,0,0,1-1.566-.231,6.516,6.516,0,0,1-1.2-.41,5.832,5.832,0,0,1-2.117-1.612,5.977,5.977,0,0,1-.792-1.312,7.973,7.973,0,0,1-.5-1.544,8.07,8.07,0,0,1-.176-1.69l-.011-3.436a1.249,1.249,0,0,1,.352-.9,1.141,1.141,0,0,1,.855-.371h1.919a1.238,1.238,0,0,1,1.208,1.259l.011,3.372a3.038,3.038,0,0,0,.2,1.133,2.465,2.465,0,0,0,.552.841,2.525,2.525,0,0,0,.838.541,3.716,3.716,0,0,0,1.053.236h1.54c.562,0,1.018,0,1.38-.021a4.188,4.188,0,0,0,.823-.1,2.267,2.267,0,0,0,.7-.357,2.5,2.5,0,0,0,.572-.594,2.962,2.962,0,0,0,.522-1.685Zm-28.892,9.02a3.114,3.114,0,0,0,.131.9,2.8,2.8,0,0,0,.376.777,2.578,2.578,0,0,0,.567.594,2.186,2.186,0,0,0,.7.357,4.019,4.019,0,0,0,.818.1c.366.016.828.021,1.385.021h.677a3.732,3.732,0,0,0,1.044-.236,2.648,2.648,0,0,0,.842-.541,2.42,2.42,0,0,0,.568-.841,2.938,2.938,0,0,0,.205-1.133V39.7a1.239,1.239,0,0,1,1.207-1.263h1.92a1.239,1.239,0,0,1,1.207,1.263v3.44a7.871,7.871,0,0,1-.7,3.224,6.5,6.5,0,0,1-.8,1.313,5.344,5.344,0,0,1-1.044,1.008c-.341.247-.642.451-.9.62a3.348,3.348,0,0,1-.9.41,6.338,6.338,0,0,1-1.264.226c-.507.047-1.169.068-1.991.068-.864,0-1.586-.02-2.162-.068a9.287,9.287,0,0,1-1.49-.231,5.47,5.47,0,0,1-1.1-.41,6.366,6.366,0,0,1-2.007-1.569,6.037,6.037,0,0,1-.807-1.276,7.733,7.733,0,0,1-.532-1.507,7.252,7.252,0,0,1-.191-1.658V28.815a1.24,1.24,0,0,1,1.208-1.263h1.829a1.239,1.239,0,0,1,1.207,1.263Z" transform="translate(-18.034 -5.014)" fill="#0050a0" fill-rule="evenodd"/>
        <path id="Path_2" data-name="Path 2" d="M189.892,67.351a13.43,13.43,0,0,0-.253-2.851,4.153,4.153,0,0,0-.8-1.778,2.919,2.919,0,0,0-1.431-.914,7.491,7.491,0,0,0-2.116-.263,4.934,4.934,0,0,0-2.431.552,2.978,2.978,0,0,0-1.38,1.573,6.531,6.531,0,0,0-.31,1.494,19.458,19.458,0,0,0-.106,2.188v11.23a1.247,1.247,0,0,1-1.222,1.266h-1.851a1.247,1.247,0,0,1-1.222-1.266V67.336a19.085,19.085,0,0,1,.451-4.407,7.539,7.539,0,0,1,1.5-3.124,6.286,6.286,0,0,1,2.705-1.847,12.09,12.09,0,0,1,4.107-.61,9.287,9.287,0,0,1,5.121,1.278,7.824,7.824,0,0,1,1.7,1.473,6.727,6.727,0,0,1,1.091,1.851,9.662,9.662,0,0,1,.578,2.362,23.3,23.3,0,0,1,.173,3.024V78.581a1.247,1.247,0,0,1-1.222,1.266h-1.851a1.247,1.247,0,0,1-1.222-1.266Zm-86.62,5.543a3.135,3.135,0,0,0,.132.905,2.823,2.823,0,0,0,.381.778,2.591,2.591,0,0,0,.573.595,2.227,2.227,0,0,0,.711.357,4.12,4.12,0,0,0,.828.1c.37.016.837.021,1.4.021h.685a3.789,3.789,0,0,0,1.056-.236,2.7,2.7,0,0,0,.853-.541,2.422,2.422,0,0,0,.573-.842,2.9,2.9,0,0,0,.209-1.136V69.522a1.247,1.247,0,0,1,1.221-1.266h1.942a1.247,1.247,0,0,1,1.222,1.266v3.446a7.777,7.777,0,0,1-.706,3.229,6.479,6.479,0,0,1-.812,1.315,5.365,5.365,0,0,1-1.056,1.009c-.345.248-.649.453-.913.621a3.358,3.358,0,0,1-.909.411,6.407,6.407,0,0,1-1.279.227c-.513.047-1.183.068-2.015.068-.873,0-1.6-.02-2.188-.068a9.508,9.508,0,0,1-1.508-.231,6.317,6.317,0,0,1-3.147-1.983,6,6,0,0,1-.817-1.278,7.636,7.636,0,0,1-.538-1.509,7.2,7.2,0,0,1-.193-1.663v-14.5a1.247,1.247,0,0,1,1.222-1.266h1.851a1.247,1.247,0,0,1,1.222,1.266ZM130.029,69.9a2.588,2.588,0,0,0-.37-1.367,5.318,5.318,0,0,0-.985-1.173,13.548,13.548,0,0,0-1.39-1.094c-.523-.357-1.051-.741-1.594-1.147a19.643,19.643,0,0,1-1.594-1.335,8.976,8.976,0,0,1-1.391-1.646,8.36,8.36,0,0,1-.985-2.1,7.494,7.494,0,0,1-.276-1.241,1.253,1.253,0,0,1,.285-1.009,1.166,1.166,0,0,1,.923-.438h1.823a1.219,1.219,0,0,1,1.186.959,3.4,3.4,0,0,0,.2.581,5.339,5.339,0,0,0,.8,1.278,7.866,7.866,0,0,0,1.127,1.094c.421.342.847.668,1.284.989.62.452,1.239.926,1.863,1.425a11.844,11.844,0,0,1,1.69,1.646,8.268,8.268,0,0,1,1.228,1.982,5.855,5.855,0,0,1,.477,2.4v3.408a7.2,7.2,0,0,1-.192,1.663,7.635,7.635,0,0,1-.538,1.509,6.035,6.035,0,0,1-.817,1.278,6.377,6.377,0,0,1-2.035,1.573,5.6,5.6,0,0,1-1.112.411,9.5,9.5,0,0,1-1.507.231c-.584.047-1.315.068-2.188.068-.843,0-1.523-.02-2.04-.068a6.779,6.779,0,0,1-1.3-.227,3.416,3.416,0,0,1-.929-.411c-.269-.168-.574-.373-.909-.621a5.342,5.342,0,0,1-1.056-1.009,6.477,6.477,0,0,1-.812-1.315,7.765,7.765,0,0,1-.706-3.229V69.522a1.247,1.247,0,0,1,1.222-1.266h1.942a1.248,1.248,0,0,1,1.222,1.266v3.373a2.918,2.918,0,0,0,.208,1.136,2.49,2.49,0,0,0,.568.842,2.567,2.567,0,0,0,.848.541,3.782,3.782,0,0,0,1.056.236h.746a9.388,9.388,0,0,0,1.681-.131,3.306,3.306,0,0,0,1.233-.453,2.214,2.214,0,0,0,.771-.873,3.861,3.861,0,0,0,.351-1.378Zm15.8,9.945c-.883,0-1.614-.02-2.2-.068a9.511,9.511,0,0,1-1.507-.231,6.278,6.278,0,0,1-3.142-1.988,6.1,6.1,0,0,1-.817-1.278,6.861,6.861,0,0,1-.528-1.5,7.2,7.2,0,0,1-.188-1.663v-14.5a1.247,1.247,0,0,1,1.222-1.266h1.851a1.247,1.247,0,0,1,1.222,1.266v5.894a1.248,1.248,0,0,0,1.222,1.266h3.1c4.655,0,8.319,1.923,8.319,7.184a7.794,7.794,0,0,1-.7,3.234,6.307,6.307,0,0,1-.813,1.315,5.366,5.366,0,0,1-1.055,1.01,5.975,5.975,0,0,1-2.26,1.031,11.021,11.021,0,0,1-1.583.231c-.6.047-1.31.068-2.132.068m-4.091-6.958a2.865,2.865,0,0,0,.142.91,2.834,2.834,0,0,0,.386.778,2.571,2.571,0,0,0,.568.595,2.228,2.228,0,0,0,.711.357,4.053,4.053,0,0,0,.823.1c.37.016.837.021,1.4.021h1.559a3.6,3.6,0,0,0,1.051-.242,2.442,2.442,0,0,0,1.406-1.378,2.951,2.951,0,0,0,.209-1.141,3.441,3.441,0,0,0-.209-1.236,2.123,2.123,0,0,0-.675-.921,3.094,3.094,0,0,0-1.209-.568,7.111,7.111,0,0,0-1.807-.195h-3.134a1.247,1.247,0,0,0-1.222,1.265Zm20.879-.842q1.768.633,3.517,1.257,2.163.77,4.345,1.557a4.084,4.084,0,0,1,1.31.8,3.3,3.3,0,0,1,.71.963,3.109,3.109,0,0,1,.3,1.01,7.929,7.929,0,0,1,.061.936v.012a1.247,1.247,0,0,1-1.222,1.266h-1.8a1.22,1.22,0,0,1-1.189-.974.423.423,0,0,0-.023-.072.346.346,0,0,0-.192-.153h.015c-.863-.3-1.762-.61-2.685-.936s-1.858-.647-2.792-.967-1.858-.648-2.787-.967q-.945-.334-1.847-.647a1.246,1.246,0,0,1-.832-1.2V64.08a7.2,7.2,0,0,1,.193-1.667,7.767,7.767,0,0,1,.538-1.509,6.007,6.007,0,0,1,3.965-3.256,9.4,9.4,0,0,1,1.507-.231c.584-.047,1.314-.069,2.188-.069.832,0,1.507.021,2.025.069a6.732,6.732,0,0,1,1.3.231,4.24,4.24,0,0,1,.929.41c.269.164.579.368.924.616a5.39,5.39,0,0,1,1.056,1.009A6.367,6.367,0,0,1,172.938,61a7.705,7.705,0,0,1,.518,1.541,7.361,7.361,0,0,1,.188,1.683v3.615a1.247,1.247,0,0,1-1.222,1.266H170.48a1.247,1.247,0,0,1-1.222-1.266V64.3a2.923,2.923,0,0,0-.208-1.136,2.5,2.5,0,0,0-.568-.842,2.556,2.556,0,0,0-.848-.542,3.811,3.811,0,0,0-1.056-.236h-.746a9.409,9.409,0,0,0-1.69.132,3.268,3.268,0,0,0-1.223.452,2.183,2.183,0,0,0-.772.873,3.854,3.854,0,0,0-.35,1.373v6.477a1.246,1.246,0,0,0,.823,1.2" transform="translate(-18.034 -10.449)" fill="#0050a0" fill-rule="evenodd"/>
        <path id="Path_3" data-name="Path 3" d="M39.8,58.885,41.6,72.81l12.57.01,1.882-13.872Z" transform="translate(-7.252 -10.729)" fill="#fff" fill-rule="evenodd"/>
        <path id="Path_4" data-name="Path 4" d="M36.222,0c-1.573,3.832-.07,6.192,1.05,8.553a6.434,6.434,0,0,1-1.057,6.6c-1.62,1.955-4.351,2.937-6.543,1.99-.115-.05-.23-.105-.343-.164,1.072-3.935-.136-7.272-2.786-9.317a10.352,10.352,0,0,1,1.973-2.888A20.777,20.777,0,0,1,36.222,0" transform="translate(-4.836 0)" fill="#5d9431" fill-rule="evenodd"/>
        <path id="Path_5" data-name="Path 5" d="M45.7,40.8l18.1,13.41L62.027,64.844q-1.045.789-2.157,1.528l1.239-10.424L45.623,44.428,30.137,55.948l2.211,18.6q-.792-.021-1.58-.074h0l-3.41-20.315Z" transform="translate(-4.984 -7.434)" fill="#0050a0" fill-rule="evenodd"/>
        <path id="Path_6" data-name="Path 6" d="M39.786,58.885l-.074.065,1.873,13.86,12.57.009,1.882-13.872-.071-.062Zm1.277,1.189h13.62L53.117,71.63l-10.492-.007Z" transform="translate(-7.236 -10.729)" fill="#5d9431" fill-rule="evenodd"/>
        <path id="Path_7" data-name="Path 7" d="M42.248,61.11l.636,4.709h5.048V61.11ZM43,66.695l.635,4.7,4.294,0v-4.7ZM48.739,71.4l4.289,0,.64-4.709H48.739Zm5.046-5.581.639-4.709H48.739v4.709Z" transform="translate(-7.698 -11.135)" fill="#0050a0" fill-rule="evenodd"/>
        <path id="Path_8" data-name="Path 8" d="M43.467,34.914h0l-7.859,5.465V34.914Z" transform="translate(-6.488 -6.362)" fill="#5d9431" fill-rule="evenodd"/>
      </g>
    </g>
    <g id="Group_4" data-name="Group 4" transform="translate(29.121 25.708)">
      <g id="Group_3" data-name="Group 3" clip-path="url(#clip-path-2)">
        <rect id="Rectangle_2" data-name="Rectangle 2" width="7.001" height="7.988" transform="matrix(0.602, -0.799, 0.799, 0.602, -1.367, 1.814)" fill="url(#linear-gradient)"/>
      </g>
    </g>
    <g id="Group_6" data-name="Group 6" transform="translate(0 0)">
      <g id="Group_5" data-name="Group 5" clip-path="url(#clip-path)">
        <path id="Path_10" data-name="Path 10" d="M44.543,39.754l20.8,15.409,2.592-2.453L44.543,35.065,21,52.71l2.38,2.453Z" transform="translate(-3.826 -6.389)" fill="#5d9431" fill-rule="evenodd"/>
        <path id="Path_11" data-name="Path 11" d="M21,51.615l7.547-13.643,4.4-2.483v3.823l7.858-5.466V31l3.656-1.949,15.924,8.918,7.547,13.643L44.461,34.062Z" transform="translate(-3.826 -5.294)" fill="#5d9431" fill-rule="evenodd"/>
        <path id="Path_12" data-name="Path 12" d="M26.905,70.987c14.519.987,30.173-6.232,37.972-16.092,7.6-9.606,6.667-17.034,3.081-22.251C58.274,18.553,18.991,22.434,6.153,56.031c5.141-39.5,68.338-45.261,68.5-15.613C74.444,72.125,10.161,88.8,10.034,60c-.015-3.392,1.476-8,5.088-12.166-7.48,12.873-2.571,22.177,11.784,23.153" transform="translate(-1.121 -3.949)" fill="#0050a0" fill-rule="evenodd"/>
        <path id="Path_13" data-name="Path 13" d="M44.371,80.821C58.3,78.2,77.1,69.161,82.058,50.752c-1.089,21.114-20.225,30.3-37.687,30.069" transform="translate(-8.085 -9.247)" fill="#5d9431" fill-rule="evenodd"/>
        <path id="Path_14" data-name="Path 14" d="M10.825,40.33c5.37-13.384,17.951-23.221,39.206-19.911-22.576,1.8-30.792,10.818-39.206,19.911" transform="translate(-1.972 -3.603)" fill="#5d9431" fill-rule="evenodd"/>
        <path id="Path_15" data-name="Path 15" d="M0,10.168c7.244,2.272,9.54-3.3,15.835-2.785,6.092.5,10.036,5.068,8.026,11.325-.655,2.04-2.673,3.688-5.181,4.524C10.738,25.879,3.113,18.541,0,10.168" transform="translate(0 -1.339)" fill="#5d9431" fill-rule="evenodd"/>
        <path id="Path_16" data-name="Path 16" d="M31.79,46.389l-1.43-1.657,1.52,1.4-1.362-3.506,1.554,3.351L32.3,44l.037,1.979,1.183-2.772-.918,2.879,1.51-1.238L32.778,46.38l1.859-.762-1.789.976,1.945.121-2.052.075,1.888.916L32.6,46.947l2.431,2.443-2.517-2.272,1.077,2.389-1.257-2.371-.056,2.413-.149-2.4-1.4,3.337L31.9,47.158l-1.666,1.559,1.514-1.693-2.076.915,2.044-1.186-2.249-.286,2.2.075-3.261-1.086Z" transform="translate(-5.176 -7.767)" fill="#fff" fill-rule="evenodd"/>
      </g>
    </g>
  </g>
</svg>
