<svg id="უფასო_მიტანა" data-name="უფასო მიტანა" xmlns="http://www.w3.org/2000/svg" width="99.998" height="15.485" viewBox="0 0 99.998 15.485">
  <g id="Group_361" data-name="Group 361" transform="translate(-166.002 -1232)">
    <text id="უფასო_მიტანა-2" data-name="უფასო მიტანა" transform="translate(182 1244)" fill="#dd5f5f" font-size="11" font-family="NotoSansGeorgian-Bold, Noto Sans Georgian" font-weight="700"><tspan x="0" y="0">უფასო მიტანა</tspan></text>
    <path id="Subtraction_17" data-name="Subtraction 17" d="M17229.969,18.941h0l-4.24-4.091a5.64,5.64,0,0,1,0-8.182,6.16,6.16,0,0,1,8.486,0,5.64,5.64,0,0,1,0,8.182l-4.246,4.091Zm0-10.531a2.476,2.476,0,0,0-1.725.688,2.3,2.3,0,0,0,0,3.32,2.5,2.5,0,0,0,3.447,0,2.289,2.289,0,0,0,0-3.32A2.465,2.465,0,0,0,17229.971,8.41Z" transform="translate(-17057.969 1228.545)" fill="#dd5f5f"/>
  </g>
</svg>
