<svg xmlns="http://www.w3.org/2000/svg" width="21.91" height="24.167" viewBox="0 0 21.91 24.167">
  <g id="Home" transform="translate(3 3)">
    <g id="Union_4" data-name="Union 4" transform="translate(17.91 21.164) rotate(180)" fill="none" stroke-linecap="round" stroke-linejoin="round">
      <path d="M2,3H17.91V13.591L9.816,21.164,2,13.591Z" stroke="none"/>
      <path d="M 2.000003814697266 2.996633529663086 L 2.000003814697266 13.59110260009766 L 9.816154479980469 21.16357231140137 L 17.91018486022949 13.59110260009766 L 17.91018486022949 2.996633529663086 L 2.000003814697266 2.996633529663086 M 2.000003814697266 -0.003366470336914062 L 17.91018486022949 -0.003366470336914062 C 19.5670337677002 -0.003366470336914062 20.91018486022949 1.33978271484375 20.91018486022949 2.996633529663086 L 20.91018486022949 13.59110260009766 C 20.91018486022949 14.42140293121338 20.56607437133789 15.21458339691162 19.95974349975586 15.78183269500732 L 11.86571407318115 23.35430335998535 C 10.6976146697998 24.4471321105957 8.877545356750488 24.43125343322754 7.728684425354004 23.31821250915527 L -0.08746528625488281 15.74574279785156 C -0.670745849609375 15.1806526184082 -0.9999961853027344 14.40322303771973 -0.9999961853027344 13.59110260009766 L -0.9999961853027344 2.996633529663086 C -0.9999961853027344 1.33978271484375 0.3431549072265625 -0.003366470336914062 2.000003814697266 -0.003366470336914062 Z" stroke="none" fill="#5d9431"/>
    </g>
    <rect id="Rectangle_159" data-name="Rectangle 159" width="6" height="9" transform="translate(4.955 10.5)" fill="none" stroke="#5d9431" stroke-linejoin="round" stroke-width="3"/>
  </g>
</svg>
