<svg xmlns="http://www.w3.org/2000/svg" width="25.597" height="25.597" viewBox="0 0 25.597 25.597">
  <path id="icons8-instagram" d="M10.11,3A7.111,7.111,0,0,0,3,10.11V21.486a7.111,7.111,0,0,0,7.11,7.11H21.486a7.111,7.111,0,0,0,7.11-7.11V10.11A7.111,7.111,0,0,0,21.486,3Zm14.22,2.844a1.422,1.422,0,1,1-1.422,1.422A1.423,1.423,0,0,1,24.331,5.844ZM15.8,8.688a7.11,7.11,0,1,1-7.11,7.11A7.111,7.111,0,0,1,15.8,8.688Zm0,2.844A4.266,4.266,0,1,0,20.064,15.8,4.266,4.266,0,0,0,15.8,11.532Z" transform="translate(-3 -3)" fill="#645e55"/>
</svg>
