<svg xmlns="http://www.w3.org/2000/svg" width="21.023" height="20.212" viewBox="0 0 21.023 20.212">
  <g id="Popular" transform="translate(0.511 0.391)">
    <path id="Popular_icon" data-name="Popular icon" d="M9.12,1.635a1,1,0,0,1,1.761,0l2.141,3.976a1,1,0,0,0,.7.51l4.445.805A1,1,0,0,1,18.713,8.6l-3.121,3.26a1,1,0,0,0-.269.826l.607,4.471a1,1,0,0,1-1.425,1.036l-4.072-1.96a1,1,0,0,0-.867,0l-4.072,1.96A1,1,0,0,1,4.07,17.159l.607-4.471a1,1,0,0,0-.269-.826L1.287,8.6a1,1,0,0,1,.544-1.676l4.445-.805a1,1,0,0,0,.7-.51Z" fill="none" stroke="#5d9431" stroke-width="3"/>
  </g>
</svg>
