<svg xmlns="http://www.w3.org/2000/svg" width="28.441" height="22.753" viewBox="0 0 28.441 22.753">
  <path id="icons8-youtube" d="M29.846,7.109a3.564,3.564,0,0,0-2.514-2.514C25.114,4,16.22,4,16.22,4S7.327,4,5.109,4.594A3.564,3.564,0,0,0,2.594,7.109C2,9.327,2,15.376,2,15.376s0,6.049.594,8.268a3.564,3.564,0,0,0,2.514,2.514c2.218.594,11.112.594,11.112.594s8.893,0,11.112-.594a3.561,3.561,0,0,0,2.514-2.514c.594-2.218.594-8.268.594-8.268S30.441,9.327,29.846,7.109ZM13.376,20.3V10.45l8.532,4.926Z" transform="translate(-2 -4)" fill="#645e55"/>
</svg>
