<svg id="Group_25" data-name="Group 25" xmlns="http://www.w3.org/2000/svg" xmlns:xlink="http://www.w3.org/1999/xlink" width="16.998" height="17" viewBox="0 0 16.998 17">
  <defs>
    <clipPath id="clip-path">
      <rect id="Rectangle_27" data-name="Rectangle 27" width="16.998" height="17" fill="#645e55"/>
    </clipPath>
  </defs>
  <g id="Group_24" data-name="Group 24" clip-path="url(#clip-path)">
    <path id="Path_22" data-name="Path 22" d="M8.509,0A8.5,8.5,0,1,0,17,8.568,8.475,8.475,0,0,0,8.509,0m4.67,11.628a2.458,2.458,0,0,1-.66,1.179,1.736,1.736,0,0,1-1.028.442,3.534,3.534,0,0,1-1.694-.3,9.575,9.575,0,0,1-2.462-1.556A13.077,13.077,0,0,1,4.883,8.684,6.343,6.343,0,0,1,3.8,6.26,2.474,2.474,0,0,1,3.838,5.1a1.631,1.631,0,0,1,.8-.994,5.32,5.32,0,0,1,.87-.337.616.616,0,0,1,.661.18,1.914,1.914,0,0,1,.191.222q.509.695,1.014,1.394a.654.654,0,0,1-.015.942c-.1.128-.2.25-.3.37s-.208.227-.312.34A10.636,10.636,0,0,0,8.366,9.051c.409.381.841.738,1.258,1.11.093.083.145.073.241-.009a9.8,9.8,0,0,1,.85-.652.492.492,0,0,1,.6.041c.509.374,1.031.728,1.53,1.114a.732.732,0,0,1,.331.973" transform="translate(0 0)" fill="#645e55"/>
  </g>
</svg>
